<?xml version="1.0" encoding="utf-8"?>
<!-- Generator: Adobe Illustrator 23.0.1, SVG Export Plug-In . SVG Version: 6.00 Build 0)  -->
<svg version="1.1" id="Layer_1" xmlns="http://www.w3.org/2000/svg" xmlns:xlink="http://www.w3.org/1999/xlink" x="0px" y="0px"
	 viewBox="0 0 345.3 90" style="enable-background:new 0 0 345.3 90;" xml:space="preserve">
<style type="text/css">
	.st0{fill-rule:evenodd;clip-rule:evenodd;fill:#FFFFFF;}
	.st1{fill:none;}
	.st2{fill:#CE0E2D;}
</style>
<path class="st0" d="M255.3,90H0V0h345.3L255.3,90z"/>
<line class="st1" x1="52.1" y1="26.8" x2="244.1" y2="26.8"/>
<path d="M49.1,28.6v13.6l23.1-13.6C72.2,28.6,49.1,28.6,49.1,28.6z"/>
<path d="M53.5,59.1h25.4V33.5L53.5,59.1z"/>
<path class="st2" d="M49.1,45.9l0.1,13.2l32.1-32.3L49.1,45.9z"/>
<path class="st2" d="M104.1,28.6v21.1l0,0L92.2,28.6h-6.6l0.1,30.3h5.7V37.4l0,0l12.2,21.6h6.1V28.6H104.1z"/>
<path class="st2" d="M128.3,28.6h-13.1v30.3h13c9.9,0,12.3-9.4,12.3-15.9C140.4,37.3,138.3,28.6,128.3,28.6z M127.3,53.7h-6.1V33.9
	h6c2.7,0,6.8,0.7,6.8,9.7C134,48.6,132.3,53.7,127.3,53.7z"/>
<path class="st2" d="M164.4,42.6c1.2-0.6,3.7-1.8,3.7-6.2c0-3.2-1.8-7.7-9.2-7.7h-14.5l0.1,30.3h12.6c6.1,0,7.7-1.1,9.4-2.8
	c1.6-1.6,2.6-3.8,2.6-6.2C169,47,168,44,164.4,42.6z M150.3,33.9h7.2c2.8,0,4.6,0.7,4.6,3.3c0,2.4-2,3.3-4.4,3.3h-7.3L150.3,33.9
	L150.3,33.9z M158,53.7h-7.6l-0.1-8.1h7.9c2.3,0,4.5,1,4.5,3.7C162.7,52.3,161,53.7,158,53.7z"/>
<path class="st2" d="M197.4,38.3c-1.3-1.7-3.3-2.6-5.9-2.6c-2,0.1-3.7,0.6-5.3,1.7l1.8-8.9h-5.3l-6.4,30.6h5.1l0.2-1.2
	c0.9,1,2.3,1.8,4.6,1.8h0.1c7.2,0,11.1-6.5,12.3-12.5C199.5,43.5,199,40.4,197.4,38.3z M183.8,48.8c1.1-5.5,3.3-8.2,6.6-8.2
	c1.3,0,2.2,0.4,2.8,1c1.2,1.5,0.6,4.6,0.4,5.7c-1,4.6-3.3,7.3-6.4,7.3c-0.6,0-1.8-0.1-2.7-1.2C183.5,52.6,183.3,51,183.8,48.8z"/>
<path class="st2" d="M212.7,35.7c-6,0-9.7,2.6-10.9,7.7l-0.2,1.1h4.9l0.2-0.6c0.7-1.7,1.6-3.4,4.8-3.4c2,0,2.8,0.5,3.1,0.9
	c0.1,0.1,0.4,0.5,0.2,1.5c-0.4,1.6-1.1,1.7-1.6,1.7l-5.9,0.7c-6.1,0.7-7.8,4.9-8.3,7.3c-0.4,2-0.1,3.7,1,5s2.9,2.2,5.1,2.2
	c3.2,0,5.6-1.1,7.3-2.4c0.1,0.4,0.4,0.7,0.6,1.1c0.7,0.7,1.7,1.1,3.3,1.1c0.7,0,1.2-0.2,1.7-0.4c0.1-0.1,0.4-0.1,0.5-0.1l0.6-0.1
	l1-4.5l-1.3,0.4c-0.5,0.1-0.9,0.1-1,0.1c0-0.1,0-0.1,0-0.1l2.6-12c0.4-1.8,0.1-3.3-0.9-4.5C217.4,35.8,213.7,35.7,212.7,35.7z
	 M204.4,52.3c0.4-1.8,2.3-2.4,4.3-2.7c2.3-0.4,3.7-0.5,4.8-0.7l-0.4,1.7c-0.5,2.3-3.5,4.3-6.5,4.3c-0.7,0-1.6-0.1-2-0.6
	C204.2,53.8,204.3,53,204.4,52.3z"/>
<path class="st2" d="M241,37.8c-1.2-1.5-3.1-2.2-5.6-2.2c-2.3,0-4.2,0.9-5.6,2.1l0.4-1.3h-5.1l-4.8,22.7h5.3l2.6-12.2
	c1.2-6.1,5.5-6.4,6-6.4c1.2,0,1.8,0.2,2.2,0.7c0.5,0.6,0.5,1.8,0.1,3.7l-2.9,13.9h5.3l3.1-15C242.5,41.3,242.2,39.3,241,37.8z"/>
<path class="st2" d="M266.6,36.2h-7.2l-8.9,7.5l3.2-15.3h-5.1l-6.4,30.6h5.3l1.7-8.3l2.2-1.7l3.9,10h6.5l-6-13.7L266.6,36.2z"/>
</svg>
