<?xml version="1.0" encoding="utf-8"?>
<!-- Generator: Adobe Illustrator 23.0.1, SVG Export Plug-In . SVG Version: 6.00 Build 0)  -->
<svg version="1.1" id="Layer_1" xmlns="http://www.w3.org/2000/svg" xmlns:xlink="http://www.w3.org/1999/xlink" x="0px" y="0px"
	 viewBox="0 0 300 300" style="enable-background:new 0 0 300 300;" xml:space="preserve">
<style type="text/css">
	.st0{fill:#19ADD3;}
</style>
<path class="st0" d="M146.9,294.4c-4.8-1.8-8.7-4.6-10.1-9.9c-1.6-5.9,0.8-12.3,6.2-15.1c1.9-1,2.3-2.1,2.3-4.1
	c-0.1-14.6,0-29.2,0-43.8c0-1,0-2,0-3.3c3,0,5.8,0,9,0c0,1,0,2,0,3c0,14.9,0,29.7,0,44.6c0,1.3,0,2.4,1.5,3.1
	c5.3,2.7,7.9,7.2,7.4,13c-0.5,5.9-3.8,9.8-9.4,11.8c-0.4,0.1-0.8,0.4-1.2,0.6C150.6,294.4,148.8,294.4,146.9,294.4z M154.2,280.8
	c-0.1-2.4-2.2-4.4-4.6-4.4c-2.4,0.1-4.4,2.1-4.4,4.6c0.1,2.4,2.2,4.4,4.6,4.4C152.2,285.3,154.2,283.2,154.2,280.8z"/>
<path class="st0" d="M6,140c10-13.5,28.5-14.3,39.6-8.2c3.1,1.7,5.9,4.2,8.4,6.8c2.2,2.1,1.8,5-0.3,6.6c-2,1.6-4.7,1.4-6.4-0.9
	c-7-9.4-26-9.3-33.1,0c-2.3,3-5,2.5-8.1-0.9C6,142.3,6,141.1,6,140z"/>
<path class="st0" d="M167.8,195.6c0,1.6,0,2.9,0,4.5c2.8,0,5.5,0,8.2,0c3.1,0.1,5.1,1.7,5.2,4.3c0.1,2.7-2,4.6-5.2,4.6
	c-17.5,0-35,0-52.5,0c-3.3,0-5.3-1.9-5.2-4.6c0.1-2.6,2-4.3,5.2-4.4c2.7,0,5.4,0,8.2,0c0-1.6,0-2.8,0-4.5c-1,0-2,0-3,0
	c-14.2,0-28.4,0-42.6,0c-9.3,0-14.8-5.5-14.8-14.8c0-24.7,0-49.4,0-74.1c0-8.8,5.6-14.4,14.3-14.4c42.8,0,85.7,0,128.5,0
	c8.8,0,14.3,5.6,14.3,14.4c0,24.8,0,49.6,0,74.3c0,8.9-5.6,14.5-14.6,14.5c-14.2,0-28.4,0-42.6,0C170,195.6,169,195.6,167.8,195.6z
	 M121.5,129.7c0,2.5,0,2.5-1.9,4.4c-5.1,5-5,15.3,0.4,20c1.1,1,1.8,1.9,1.6,3.5c-1.2,6.8,7.7,15.5,14.5,14.6c1-0.1,2.5,0.5,3.2,1.3
	c5.3,5.7,15.6,5.7,20.9-0.1c0.7-0.7,2-1.4,3-1.3c7.1,1,15.8-7.8,14.8-14.7c-0.1-1,0.6-2.4,1.4-3.2c5.6-5.2,5.7-15.6-0.1-20.6
	c-1.2-1.1-1.7-2-1.4-3.6c1-6.7-7.7-15.4-14.4-14.4c-1.5,0.2-2.5-0.2-3.6-1.4c-4.9-5.7-15.4-5.7-20.3-0.1c-1.1,1.3-2.1,1.8-3.8,1.6
	C129.2,114.8,120.8,123.3,121.5,129.7z M97.9,139.4c1.6,0,3.2,0.1,4.8,0c2.6-0.2,4.4-2.1,4.3-4.6c-0.1-2.3-1.8-4.2-4.3-4.3
	c-3.1-0.1-6.2-0.1-9.3,0c-2.5,0.1-4.3,2-4.3,4.3c-0.1,2.4,1.7,4.4,4.3,4.6C94.9,139.5,96.4,139.4,97.9,139.4z M201.3,139.4
	c1.6,0,3.2,0.1,4.8,0c2.5-0.2,4.2-2.1,4.2-4.4s-1.7-4.3-4.2-4.5c-3.2-0.1-6.4-0.1-9.5,0c-2.5,0.1-4.2,2.1-4.2,4.4
	c0,2.3,1.7,4.3,4.2,4.5C198.1,139.5,199.7,139.4,201.3,139.4z M97.9,157.4c1.6,0,3.2,0.1,4.8,0c2.6-0.2,4.4-2.1,4.4-4.6
	c-0.1-2.3-1.8-4.2-4.3-4.3c-3.1-0.1-6.2-0.1-9.3,0c-2.6,0.1-4.4,2.1-4.4,4.5c0.1,2.3,1.8,4.2,4.3,4.4
	C94.9,157.5,96.4,157.4,97.9,157.4z M201.5,148.4c-1.6,0-3.2-0.1-4.8,0c-2.6,0.2-4.4,2.1-4.4,4.6c0.1,2.3,1.8,4.2,4.3,4.3
	c3.1,0.1,6.2,0.1,9.3,0c2.6-0.1,4.4-2.1,4.4-4.6c-0.1-2.3-1.8-4.2-4.3-4.4C204.5,148.4,203,148.4,201.5,148.4z M158.6,195.7
	c-6.1,0-11.8,0-17.7,0c0,1.5,0,2.8,0,4.4c3,0,5.9,0,8.8,0c2.9,0,5.9,0,8.9,0C158.6,198.4,158.6,197.1,158.6,195.7z"/>
<path class="st0" d="M109.3,83.2c-3.1,0-5.9,0-8.9,0c0-7.4,0-14.8,0-22.3c-9.1,0-17.8,0-26.6,0.1c-0.7,0-1.7,1.2-2.1,2
	c-3.2,5.3-9.2,7.9-15.1,6.4c-6-1.6-10-6.8-10.1-12.9c0-6.1,4-11.4,10-13c5.9-1.6,12.2,0.9,15.1,6.3c1,1.8,2,2.3,3.9,2.2
	c8-0.1,16.1,0,24.1,0c6.1,0,9.8,3.7,9.8,9.7C109.3,68.7,109.3,75.8,109.3,83.2z M64.3,56.2c-0.1-2.4-2.2-4.4-4.6-4.3
	c-2.4,0.1-4.4,2.2-4.3,4.6c0.1,2.4,2.2,4.4,4.6,4.3C62.4,60.8,64.4,58.6,64.3,56.2z"/>
<path class="st0" d="M199.1,60.9c0,7.6,0,14.8,0,22.2c-2.9,0-5.8,0-9,0c0-2.8,0-5.6,0-8.5c0-4.4,0-8.8,0-13.2
	c0.1-5.8,3.7-9.5,9.5-9.5c8.3,0,16.6,0,25,0c1.6,0,2.4-0.4,3.2-1.9c3-5.7,9.1-8.2,15.2-6.6c5.9,1.6,10,6.8,10.1,13
	c0,6.2-4.1,11.5-10.3,13.1c-5.9,1.5-11.9-1.2-15-6.6c-0.4-0.8-1.3-1.9-2-1.9C216.9,60.8,208.2,60.9,199.1,60.9z M239.4,60.8
	c2.4,0,4.5-2,4.6-4.4c0-2.4-2-4.5-4.4-4.5c-2.4,0-4.5,2-4.6,4.4C235,58.7,237,60.8,239.4,60.8z"/>
<path class="st0" d="M100.4,227c0-7.7,0-14.9,0-22.3c3,0,5.7,0,8.9,0c0,2.8,0,5.5,0,8.3c0,4.4,0,8.8,0,13.2c0,6.1-3.7,9.8-9.8,9.8
	c-8.2,0-16.4,0.1-24.7,0c-1.6,0-2.4,0.4-3.2,1.9c-3,5.7-9.1,8.2-15.2,6.6c-5.9-1.6-10-6.8-10-13c0-6.1,4.1-11.4,10-13
	c6.1-1.6,12.1,1,15.3,6.5c0.4,0.8,1.3,1.9,2,1.9C82.4,227,91.2,227,100.4,227z M59.7,227c-2.4,0.1-4.4,2.2-4.3,4.6
	c0.1,2.4,2.2,4.4,4.6,4.3c2.4-0.1,4.4-2.2,4.3-4.6C64.3,228.9,62.2,226.9,59.7,227z"/>
<path class="st0" d="M190.1,204.6c3.1,0,5.9,0,8.9,0c0,7.4,0,14.7,0,22.3c2.1,0,4,0,5.8,0c6,0,12-0.1,17.9,0.1
	c2.6,0.1,4.2-0.4,5.7-3c2.9-5.2,9.5-7.2,15.2-5.3c5.6,1.8,9.5,7.3,9.3,13.3c-0.2,5.8-4.3,10.9-9.9,12.5c-5.8,1.6-12.1-0.8-14.9-6
	c-1.1-2-2.2-2.5-4.3-2.5c-7.9,0.1-15.9,0.1-23.8,0c-6.1,0-9.8-3.7-9.8-9.7C190.1,219.1,190.1,212.1,190.1,204.6z M239.6,235.9
	c2.4-0.1,4.4-2.2,4.3-4.6c-0.1-2.4-2.2-4.4-4.6-4.3c-2.4,0.1-4.4,2.2-4.3,4.6C235.1,234.1,237.2,236,239.6,235.9z"/>
<path class="st0" d="M154.2,83.2c-3.2,0-5.9,0-9,0c0-1.1,0-2.1,0-3.1c0-14.8,0-29.5,0-44.3c0-1.8-0.4-2.8-2.1-3.6
	c-5.4-2.9-8-9.1-6.4-15c1.6-5.9,6.8-10.1,12.9-10.1c6.1,0,11.4,4,13,10c1.6,5.9-0.9,12.2-6.3,15.1c-1.8,1-2.2,2-2.2,3.9
	c0.1,14.7,0,29.4,0,44C154.2,80.9,154.2,82,154.2,83.2z M149.6,16c-2.4,0.1-4.4,2.1-4.4,4.6s2.1,4.4,4.6,4.4
	c2.4-0.1,4.4-2.1,4.4-4.6C154.1,17.9,152,15.9,149.6,16z"/>
<path class="st0" d="M294,141.9c-1.2,1.4-2.1,2.9-3.4,3.8c-1.9,1.2-3.9,0.4-5.2-1.3c-4.9-5.9-11.4-7.6-18.6-7.1
	c-5.7,0.4-10.7,2.3-14.5,6.9c-2,2.4-4.6,2.6-6.6,0.9c-2-1.7-2.2-4.4-0.1-6.7c7.2-8.4,16.7-10.9,27.3-9.9c7.3,0.7,13.7,3.6,18.6,9.2
	C292.3,138.8,292.9,140.1,294,141.9z"/>
<path class="st0" d="M287.2,157.7c-1.1,1.3-2,2.9-3.4,3.7c-2,1.2-3.9,0.3-5.4-1.5c-3.6-4.1-8.1-5.9-13.3-4.1c-2.2,0.7-4.2,2.3-6,3.9
	c-2.5,2.3-4.8,2.8-6.9,1c-2.1-1.8-2-4.3,0.1-6.9c8.3-10.3,24.7-10.2,32.8,0.2C285.9,154.9,286.3,156.1,287.2,157.7z"/>
<path class="st0" d="M32.7,146.2c4.9,0.1,10.4,2.7,14.5,7.9c2,2.4,1.8,5-0.2,6.7c-2,1.7-4.6,1.4-6.6-0.9c-5.7-6.4-13.7-6.4-19.4,0
	c-2.1,2.3-4.6,2.7-6.6,1c-2.1-1.7-2.2-4.2-0.3-6.7C18,149,24.1,146.1,32.7,146.2z"/>
<path class="st0" d="M35.2,168.6c0,2.4-2,4.5-4.5,4.5s-4.5-2-4.5-4.5c0-2.4,2-4.5,4.5-4.5C33.1,164.1,35.2,166.2,35.2,168.6z"/>
<path class="st0" d="M268.7,173.1c-2.4,0-4.5-2-4.5-4.5s2-4.5,4.5-4.5c2.4,0,4.5,2,4.5,4.4C273.1,171.1,271.1,173.1,268.7,173.1z"/>
<path class="st0" d="M133.3,133.6c-3.6-4.2-3.7-4.6-1.1-7.2c2.6-2.5,2.9-2.5,7.2,1.1c1.1-0.5,2.1-1.2,3.2-1.5c2.2-0.5,3.3-1.5,3.1-4
	c-0.2-1.9,1.1-2.9,3-2.8c1.9,0.1,4.9-0.7,4.9,2.2c0,3.3,1.5,4.4,4.1,5.1c0.8,0.2,1.5,0.7,2.2,1.1c4.5-3.6,4.9-3.6,7.6-0.8
	c2.2,2.3,2.1,2.9-1.4,6.8c0.6,1.5,1.4,2.9,1.8,4.5c0.4,1.6,1.2,1.8,2.6,1.8c3.4,0.1,3.9,0.6,3.9,4c0,3.4-0.5,4.1-3.8,4.1
	c-1.6,0-2.4,0.4-2.8,2c-0.4,1.4-1.1,2.8-1.7,4.1c3.4,5,3.4,5.2,0.4,7.9c-3.1,2.8-4.6-0.3-6.5-1.8c-1.1,0.5-2.1,1.2-3.3,1.5
	c-2.2,0.5-3.4,1.5-3.1,4c0.2,1.9-1.1,2.9-3,2.9c-1.9-0.1-4.9,0.7-4.9-2.2c0.1-3.3-1.5-4.3-4.1-5.1c-0.8-0.2-1.5-0.7-2.2-1.1
	c-4.5,3.6-4.9,3.6-7.6,0.8c-2.2-2.3-2.1-2.8,1.4-6.7c-0.7-1.7-1.2-3.5-2.1-5c-0.4-0.7-1.7-1.2-2.6-1.3c-3-0.3-3.6-0.8-3.6-4.1
	c0-3.4,0.5-4.1,3.5-4.1c1.8,0,2.7-0.5,3.1-2.3C132,136.3,132.7,135.1,133.3,133.6z M149.4,157.4c7.4,0.1,13.5-5.8,13.7-13.1
	c0.2-7.5-5.8-13.7-13.2-13.8c-7.4-0.1-13.5,5.8-13.7,13.1C136.1,151,142,157.3,149.4,157.4z"/>
<path class="st0" d="M149.8,139.5c2.4,0.1,4.4,2.1,4.4,4.6c-0.1,2.4-2.2,4.4-4.6,4.4c-2.4-0.1-4.4-2.1-4.4-4.6
	C145.3,141.4,147.4,139.4,149.8,139.5z"/>
</svg>
