<?xml version="1.0" encoding="utf-8"?>
<!-- Generator: Adobe Illustrator 23.0.1, SVG Export Plug-In . SVG Version: 6.00 Build 0)  -->
<svg version="1.1" id="Layer_1" xmlns="http://www.w3.org/2000/svg" xmlns:xlink="http://www.w3.org/1999/xlink" x="0px" y="0px"
	 viewBox="0 0 300 300" style="enable-background:new 0 0 300 300;" xml:space="preserve">
<style type="text/css">
	.st0{fill:#C93836;}
</style>
<path class="st0" d="M5,183.4c0-1.3,0-2.5,0-3.6C5,127.4,5,75,5,22.6C5,14.7,8.7,11,16.7,11c87.4,0,174.8,0,262.2,0
	c8.4,0,12,3.6,12,11.9c0,52.4,0,104.8,0,157.1c0,1,0,2,0,3.3C195.7,183.4,100.5,183.4,5,183.4z M172.9,30.9c0,44.4,0,88.6,0,132.7
	c32.9,0,65.6,0,98.2,0c0-44.4,0-88.5,0-132.7C238.3,30.9,205.7,30.9,172.9,30.9z M78.9,55.5c-28.7-0.3-55.4,23.7-54.2,56.8
	c1.1,30.2,29.1,54.5,59,51.4c34.3-3.6,50.6-33.9,49-54.2c-17.9,0-35.8,0-53.9,0C78.9,91.3,78.9,73.5,78.9,55.5z M98.9,35.8
	c0,18.1,0,36,0,53.8c18.1,0,36,0,53.9,0C152.9,59.4,127.6,35.4,98.9,35.8z"/>
<path class="st0" d="M291,193.6c0,6.8,0.1,13.4,0,19.9c-0.1,5.6-4.5,9.4-10.5,9.4c-12.9,0-25.9,0-38.8,0c-18.6,0-37.2,0-55.8,0
	c-1,0-2,0-3.4,0c3.3,18.2,6.6,36.1,9.9,54.2c8,0,15.8-0.1,23.5,0c4.6,0,8.1,2.8,9.4,7.1c1.2,4-0.2,8.6-3.9,10.8
	c-1.9,1.1-4.4,1.7-6.7,1.8c-18.9,0.1-37.8,0.1-56.7,0.1c-25.7,0-51.3,0-77,0c-7.9,0-12.9-7-9.8-13.7c1.8-3.9,4.9-5.9,9.3-6
	c6.6,0,13.2,0,19.7,0c1.1,0,2.2,0,3.5,0c3.3-18.1,6.5-35.9,9.9-54.2c-1.3,0-2.5,0-3.7,0c-31,0-62,0-93.1,0c-8,0-11.7-3.7-11.7-11.6
	c0-5.6,0-11.3,0-16.9c0-0.2,0.1-0.4,0.2-0.8C100.3,193.6,195.4,193.6,291,193.6z M133.4,203.4c0,3.4,0,6.4,0,9.6
	c9.8,0,19.5,0,29.2,0c0-3.3,0-6.4,0-9.6C152.7,203.4,143.1,203.4,133.4,203.4z"/>
<path class="st0" d="M187.6,84.7c0-3.3,0-6.3,0-9.5c22.9,0,45.6,0,68.6,0c0,3,0,6.2,0,9.5C233.5,84.7,210.6,84.7,187.6,84.7z"/>
<path class="st0" d="M187.6,124.2c0-3.3,0-6.3,0-9.5c22.9,0,45.6,0,68.6,0c0,3.1,0,6.2,0,9.5C233.4,124.2,210.6,124.2,187.6,124.2z"
	/>
<path class="st0" d="M187.6,65c0-3.3,0-6.3,0-9.5c9.7,0,19.3,0,29.2,0c0,3,0,6.2,0,9.5C207.2,65,197.5,65,187.6,65z"/>
<path class="st0" d="M187.6,104.5c0-3.3,0-6.3,0-9.5c9.7,0,19.3,0,29.2,0c0,3.1,0,6.2,0,9.5C207.2,104.5,197.5,104.5,187.6,104.5z"
	/>
<path class="st0" d="M187.6,134.4c9.7,0,19.3,0,29.2,0c0,3.1,0,6.2,0,9.5c-9.6,0-19.3,0-29.2,0C187.6,140.9,187.6,137.8,187.6,134.4
	z"/>
</svg>
