<?xml version="1.0" encoding="utf-8"?>
<!-- Generator: Adobe Illustrator 23.0.1, SVG Export Plug-In . SVG Version: 6.00 Build 0)  -->
<svg version="1.1" id="Layer_1" xmlns="http://www.w3.org/2000/svg" xmlns:xlink="http://www.w3.org/1999/xlink" x="0px" y="0px"
	 viewBox="0 0 300 300" style="enable-background:new 0 0 300 300;" xml:space="preserve">
<style type="text/css">
	.st0{fill:#FFFFFF;}
</style>
<path class="st0" d="M5,183.35c0-1.34,0-2.46,0-3.58C5,127.39,5,75.01,5,22.63C5,14.67,8.7,11,16.71,11c87.4,0,174.81,0,262.21,0
	c8.41,0,12.04,3.6,12.04,11.93c0,52.38,0,104.76,0,157.14c0,1.02,0,2.03,0,3.27C195.66,183.35,100.52,183.35,5,183.35z
	 M172.85,30.86c0,44.44,0,88.62,0,132.74c32.91,0,65.59,0,98.23,0c0-44.36,0-88.48,0-132.74C238.3,30.86,205.69,30.86,172.85,30.86z
	 M78.89,55.49c-28.68-0.27-55.4,23.67-54.15,56.77c1.15,30.19,29.13,54.55,59.04,51.41c34.31-3.6,50.6-33.86,48.99-54.18
	c-17.87,0-35.76,0-53.88,0C78.89,91.34,78.89,73.52,78.89,55.49z M98.9,35.81c0,18.12,0,36.02,0,53.83c18.12,0,36.01,0,53.9,0
	C152.91,59.43,127.55,35.38,98.9,35.81z"/>
<path class="st0" d="M290.95,193.64c0,6.79,0.14,13.36-0.04,19.92c-0.15,5.57-4.53,9.42-10.46,9.44
	c-12.94,0.04-25.88,0.01-38.82,0.01c-18.59,0-37.18,0-55.77,0c-1.01,0-2.03,0-3.35,0c3.31,18.2,6.56,36.11,9.86,54.24
	c7.96,0,15.75-0.06,23.54,0.02c4.56,0.05,8.09,2.84,9.37,7.1c1.21,4.02-0.22,8.65-3.92,10.75c-1.94,1.11-4.43,1.74-6.67,1.76
	c-18.9,0.14-37.8,0.08-56.69,0.08c-25.68,0-51.35,0.02-77.03-0.02c-7.89-0.01-12.89-7.01-9.85-13.74c1.77-3.93,4.95-5.93,9.27-5.96
	c6.57-0.04,13.15-0.01,19.72-0.01c1.12,0,2.23,0,3.51,0c3.28-18.06,6.53-35.91,9.87-54.23c-1.34,0-2.5,0-3.67,0
	c-31.02,0-62.04,0-93.05,0c-8.02,0-11.74-3.68-11.74-11.61c0-5.65,0.01-11.3,0.03-16.95c0-0.2,0.08-0.39,0.18-0.81
	C100.31,193.64,195.45,193.64,290.95,193.64z M133.35,203.41c0,3.39,0,6.42,0,9.55c9.84,0,19.51,0,29.21,0c0-3.3,0-6.4,0-9.55
	C152.74,203.41,143.14,203.41,133.35,203.41z"/>
<path class="st0" d="M187.57,84.74c0-3.25,0-6.29,0-9.49c22.89,0,45.64,0,68.64,0c0,3.04,0,6.16,0,9.49
	C233.46,84.74,210.64,84.74,187.57,84.74z"/>
<path class="st0" d="M187.57,124.19c0-3.27,0-6.31,0-9.5c22.9,0,45.64,0,68.64,0c0,3.06,0,6.17,0,9.5
	C233.45,124.19,210.63,124.19,187.57,124.19z"/>
<path class="st0" d="M187.56,65.02c0-3.25,0-6.29,0-9.49c9.74,0,19.34,0,29.2,0c0,3.04,0,6.15,0,9.49
	C207.17,65.02,197.5,65.02,187.56,65.02z"/>
<path class="st0" d="M187.57,104.47c0-3.26,0-6.3,0-9.49c9.74,0,19.34,0,29.2,0c0,3.05,0,6.16,0,9.49
	C207.16,104.47,197.49,104.47,187.57,104.47z"/>
<path class="st0" d="M187.61,134.4c9.73,0,19.33,0,29.17,0c0,3.09,0,6.2,0,9.52c-9.64,0-19.32,0-29.17,0
	C187.61,140.85,187.61,137.81,187.61,134.4z"/>
</svg>
