<?xml version="1.0" encoding="utf-8"?>
<!-- Generator: Adobe Illustrator 23.0.1, SVG Export Plug-In . SVG Version: 6.00 Build 0)  -->
<svg version="1.1" id="Layer_1" xmlns="http://www.w3.org/2000/svg" xmlns:xlink="http://www.w3.org/1999/xlink" x="0px" y="0px"
	 viewBox="0 0 300 300" style="enable-background:new 0 0 300 300;" xml:space="preserve">
<style type="text/css">
	.st0{fill:#44749B;}
</style>
<path class="st0" d="M82.9,83.7c19.4,1.5,38.8,3,58.4,4.6c0,18.3,0,37.2,0,56.3c-22.3,0-44.5,0-66.8,0
	C73.1,133.4,78.3,96.5,82.9,83.7z"/>
<path class="st0" d="M74.2,154.3c22.5,0,44.7,0,67.1,0c0,18.9,0,37.8,0,56.3c-19.5,1.5-38.9,3-58.6,4.6
	C77.3,195.4,74.5,175.1,74.2,154.3z"/>
<path class="st0" d="M64.2,144.6c-18.9,0-37.9,0-57.2,0c1.1-27.2,9.2-51.8,24.2-73.8c14.2,3.8,28.1,7.5,41.8,11.2
	c-1.9,10-4.3,20.3-5.8,30.7C65.8,123.2,65.2,133.8,64.2,144.6z"/>
<path class="st0" d="M7,154.2c19.4,0,38.4,0,57.7,0c0.4,21.3,3.3,42.2,8.8,62.4c-14,3.7-27.9,7.4-42.3,11.3
	C16.3,206.2,8.2,181.5,7,154.2z"/>
<path class="st0" d="M85.5,224.3c18.9-1.4,37.2-2.8,55.8-4.3c0,23.2,0,45.5,0,68.6c-3.7-1.2-7.3-2-10.7-3.4
	c-9.6-4-17-10.9-23.4-18.9C97.4,254.2,90.9,240.2,85.5,224.3z"/>
<path class="st0" d="M141.4,78c-18.7,0-37.1-1.6-56.2-4.3c3.7-8.3,7-16.3,10.9-24c5.7-11.3,13.1-21.5,23.1-29.4
	c5.7-4.5,12-7.8,19.1-9.4c0.9-0.2,1.9-0.3,3.1-0.4C141.4,33.1,141.4,55.3,141.4,78z"/>
<path class="st0" d="M110.9,284.2c-29.6-8.1-53.9-23.9-73.7-48.1c9.8-2.6,19-5.1,28.3-7.5c2.5-0.6,5-0.9,7.5-1.6
	c2.6-0.7,3.8-0.1,4.7,2.6c4.9,14.3,11.3,27.8,20.6,39.9C102.1,274.5,106.5,279.1,110.9,284.2z"/>
<path class="st0" d="M110.8,15C94.5,30.3,84.6,49.4,77.3,70.1c-0.4,1.3-0.7,2.4-2.5,2.1c-12.5-2.3-24.9-5.4-37.2-9.8
	C57,38.6,81.3,22.8,110.8,15z"/>
<path class="st0" d="M155,149.4c11.4,7.3,22.2,14.2,33.1,21.2c-1.7,2.7-3.3,5.2-5.1,7.9c-6.7-4.3-13.5-8.6-20.3-12.9
	c-3.3-2.1-6.7-4.1-9.9-6.4c-0.9-0.7-1.7-2.1-1.8-3.2c-0.2-4.4-0.1-8.9,0-13.3c0-0.9,0.5-2.2,1.2-2.6c10.2-6.6,20.5-13.2,30.8-19.8
	c1.7,2.7,3.3,5.2,5.1,7.9C177.3,135.2,166.4,142.2,155,149.4z"/>
<path class="st0" d="M151.2,10.3c26.5,1.1,50.5,8.9,72.5,23.5c-2.1,2.5-4.1,4.8-6.2,7.3c-9.9-6.4-20.4-11.6-31.7-15.2
	c-11.2-3.6-22.7-5.5-34.6-6.2C151.2,16.5,151.2,13.4,151.2,10.3z"/>
<path class="st0" d="M151.1,288.6c0-3.3,0-6.2,0-9.4c24.1-1.1,46.3-8.2,66.4-21.4c2.1,2.5,4.1,4.8,6.2,7.3
	C201.8,279.7,177.7,287.5,151.1,288.6z"/>
<path class="st0" d="M191.1,111.5c0-7.8,6.3-14,14.1-14.1c7.8,0,14.3,6.4,14.2,14.3c-0.1,7.7-6.4,14-14.1,14.1
	C197.4,125.8,191.1,119.5,191.1,111.5z"/>
<path class="st0" d="M266.7,149.2c0.1-7.7,6.4-14,14.2-14c7.8,0,14.3,6.6,14.1,14.4c-0.1,7.7-6.5,14-14.2,14
	C272.9,163.6,266.6,157.1,266.7,149.2z"/>
<path class="st0" d="M191.1,187.2c0-7.8,6.2-14.1,14-14.2c7.9-0.1,14.3,6.3,14.3,14.2c0,7.8-6.5,14.2-14.3,14.2
	C197.4,201.3,191.1,195,191.1,187.2z"/>
<path class="st0" d="M224.2,52.6c0-7.9,6.4-14.2,14.3-14.2c7.7,0.1,14,6.5,14,14.2c0,7.8-6.5,14.2-14.3,14.2
	C230.4,66.7,224.2,60.4,224.2,52.6z"/>
<path class="st0" d="M224.2,246.1c0.1-7.9,6.6-14.1,14.4-14c7.7,0.1,13.9,6.6,13.9,14.3c-0.1,7.8-6.6,14.1-14.5,14
	C230.3,260.3,224.1,253.9,224.2,246.1z"/>
<path class="st0" d="M251,72.6c1.2-1,2.4-1.9,3.6-3c1.1-1,2-2.1,3-3.2c9.8,9.2,25.5,45.5,25.6,59.2c-3,0.3-6,0.7-9,1
	C266.4,97,264.7,94.6,251,72.6z"/>
<path class="st0" d="M250.9,226.1c11.9-16.4,19.5-34.3,23.1-53.8c3.1,0.3,6,0.6,9.4,1c-3.8,21.8-12.3,41.5-25.6,59.4
	c-1.2-1.3-2.3-2.5-3.4-3.6C253.4,228.1,252.2,227.2,250.9,226.1z"/>
<path class="st0" d="M151,250.5c0-4.6-0.1-8.4,0-12.1c0-0.8,0.3-1.8,0.8-2.4c11.2-11.7,22.5-23.4,33.8-35.2c2.3,2.1,4.4,4.2,6.9,6.5
	C178.8,221.5,165.2,235.7,151,250.5z"/>
<path class="st0" d="M151,48.4c14.2,14.8,27.8,29,41.5,43.1c-2.3,2.2-4.4,4.2-6.7,6.4c-0.4-0.3-1-0.8-1.5-1.3
	c-10.5-10.9-21-21.8-31.4-32.8c-1-1.1-1.6-2.8-1.7-4.3C150.8,56,151,52.6,151,48.4z"/>
<path class="st0" d="M262.1,134.7c-1.5,3-2.8,5.6-4.3,8.4c-11.2-5.6-22.4-11.2-33.7-16.9c1.4-2.8,2.7-5.4,4.2-8.4
	C239.5,123.5,250.8,129.1,262.1,134.7z"/>
<path class="st0" d="M228.3,181c-1.4-2.9-2.8-5.5-4.2-8.4c11.1-5.6,22.4-11.2,33.7-16.9c1.5,2.9,2.8,5.5,4.3,8.4
	C250.8,169.7,239.6,175.4,228.3,181z"/>
<path class="st0" d="M222.8,70.7c2.9,1.6,5.4,3.1,8.2,4.6c-3.4,6.1-6.8,12.2-10.2,18.3c-2.9-1.6-5.5-3.1-8.2-4.6
	C216,82.9,219.4,76.8,222.8,70.7z"/>
<path class="st0" d="M212.6,209.9c2.8-1.6,5.4-3,8.2-4.6c3.4,6,6.8,12.1,10.3,18.3c-2.7,1.5-5.2,2.9-8.2,4.6
	C219.5,222.2,216.1,216.1,212.6,209.9z"/>
</svg>
