<?xml version="1.0" encoding="utf-8"?>
<!-- Generator: Adobe Illustrator 23.0.1, SVG Export Plug-In . SVG Version: 6.00 Build 0)  -->
<svg version="1.1" id="Layer_1" xmlns="http://www.w3.org/2000/svg" xmlns:xlink="http://www.w3.org/1999/xlink" x="0px" y="0px"
	 viewBox="0 0 300 300" style="enable-background:new 0 0 300 300;" xml:space="preserve">
<style type="text/css">
	.st0{fill:#FFFFFF;}
</style>
<path class="st0" d="M146.88,294.35c-4.84-1.8-8.71-4.59-10.15-9.89c-1.61-5.91,0.82-12.25,6.2-15.13c1.9-1.02,2.32-2.14,2.3-4.11
	c-0.08-14.58-0.04-29.17-0.04-43.75c0-1.02,0-2.04,0-3.26c2.97,0,5.81,0,8.98,0c0,0.99,0,1.99,0,2.98c0,14.86,0,29.73-0.01,44.59
	c0,1.32-0.02,2.36,1.53,3.15c5.25,2.69,7.85,7.19,7.36,13.05c-0.49,5.85-3.81,9.78-9.36,11.76c-0.42,0.15-0.8,0.39-1.2,0.59
	C150.62,294.35,148.75,294.35,146.88,294.35z M154.16,280.77c-0.06-2.42-2.16-4.41-4.58-4.35c-2.43,0.06-4.42,2.15-4.35,4.58
	c0.07,2.43,2.16,4.42,4.58,4.36C152.21,285.29,154.22,283.17,154.16,280.77z"/>
<path class="st0" d="M6,140c9.99-13.47,28.45-14.27,39.57-8.24c3.13,1.69,5.9,4.22,8.44,6.75c2.16,2.15,1.75,4.98-0.34,6.65
	c-2.01,1.6-4.67,1.43-6.42-0.91c-7.01-9.35-26.05-9.33-33.14,0.01c-2.29,3.02-5.04,2.53-8.11-0.9C6,142.25,6,141.12,6,140z"/>
<path class="st0" d="M167.77,195.57c0,1.64,0,2.92,0,4.49c2.79,0,5.48-0.03,8.16,0.01c3.12,0.05,5.09,1.73,5.17,4.34
	c0.08,2.71-1.96,4.61-5.18,4.61c-17.49,0.03-34.97,0.03-52.46,0c-3.25,0-5.26-1.86-5.18-4.6c0.07-2.61,2.03-4.3,5.15-4.35
	c2.69-0.04,5.37-0.01,8.17-0.01c0-1.56,0-2.84,0-4.49c-1.02,0-2.01,0-3,0c-14.21,0-28.43,0.01-42.64,0
	c-9.35-0.01-14.85-5.47-14.85-14.77c-0.01-24.69-0.01-49.37,0-74.06c0-8.77,5.61-14.44,14.33-14.44c42.83-0.02,85.65-0.02,128.48,0
	c8.76,0,14.33,5.61,14.34,14.43c0.02,24.78,0.02,49.56,0,74.34c-0.01,8.94-5.6,14.49-14.56,14.5c-14.21,0.02-28.43,0-42.64,0.01
	C170.04,195.57,169.03,195.57,167.77,195.57z M121.48,129.66c0.04,2.51,0.04,2.51-1.9,4.41c-5.14,5.04-4.99,15.25,0.41,20.01
	c1.14,1.01,1.83,1.88,1.56,3.5c-1.15,6.84,7.68,15.52,14.51,14.62c1.02-0.13,2.49,0.52,3.21,1.31c5.31,5.74,15.61,5.72,20.88-0.07
	c0.67-0.74,2.03-1.39,2.96-1.26c7.08,1.01,15.8-7.8,14.81-14.71c-0.14-0.99,0.59-2.45,1.39-3.18c5.6-5.18,5.72-15.62-0.05-20.61
	c-1.23-1.07-1.66-2.03-1.43-3.55c1.02-6.74-7.67-15.4-14.38-14.38c-1.53,0.23-2.48-0.2-3.55-1.43c-4.89-5.67-15.41-5.74-20.33-0.14
	c-1.11,1.26-2.08,1.83-3.76,1.58C129.23,114.76,120.78,123.3,121.48,129.66z M97.91,139.42c1.59,0,3.19,0.09,4.77-0.02
	c2.62-0.18,4.41-2.15,4.34-4.59c-0.07-2.33-1.83-4.21-4.33-4.31c-3.08-0.12-6.17-0.12-9.25,0c-2.5,0.1-4.26,1.97-4.33,4.3
	c-0.08,2.43,1.72,4.41,4.33,4.6C94.91,139.51,96.41,139.42,97.91,139.42z M201.3,139.42c1.59,0,3.19,0.1,4.77-0.02
	c2.47-0.2,4.2-2.09,4.22-4.42c0.02-2.33-1.7-4.34-4.16-4.46c-3.17-0.15-6.36-0.15-9.53,0c-2.49,0.11-4.2,2.06-4.21,4.4
	c-0.02,2.33,1.7,4.26,4.16,4.47C198.11,139.52,199.71,139.41,201.3,139.42z M97.86,157.38c1.59,0,3.18,0.09,4.77-0.02
	c2.63-0.18,4.43-2.11,4.38-4.55c-0.05-2.32-1.79-4.24-4.28-4.34c-3.08-0.13-6.17-0.13-9.25-0.01c-2.63,0.1-4.43,2.1-4.37,4.54
	c0.05,2.33,1.79,4.17,4.28,4.36C94.86,157.47,96.36,157.38,97.86,157.38z M201.51,148.44c-1.59,0-3.18-0.09-4.77,0.02
	c-2.62,0.17-4.42,2.11-4.37,4.55c0.05,2.32,1.8,4.24,4.29,4.34c3.08,0.13,6.17,0.13,9.25,0.01c2.63-0.1,4.43-2.11,4.37-4.55
	c-0.06-2.33-1.8-4.17-4.29-4.35C204.51,148.35,203,148.44,201.51,148.44z M158.56,195.7c-6.08,0-11.83,0-17.69,0
	c0,1.47,0,2.81,0,4.35c3.03,0,5.91,0,8.79,0c2.95,0,5.91,0,8.9,0C158.56,198.42,158.56,197.15,158.56,195.7z"/>
<path class="st0" d="M109.28,83.21c-3.11,0-5.87,0-8.94,0c0-7.42,0-14.75,0-22.34c-9.06,0-17.82-0.05-26.58,0.09
	c-0.74,0.01-1.65,1.21-2.14,2.05c-3.15,5.32-9.22,7.91-15.14,6.35c-5.95-1.58-10.05-6.84-10.06-12.94
	c-0.02-6.12,4.05-11.44,9.96-13.02c5.93-1.59,12.21,0.87,15.09,6.28c0.96,1.81,2.02,2.25,3.87,2.23c8.04-0.08,16.08-0.05,24.12-0.02
	c6.11,0.02,9.8,3.69,9.83,9.74C109.3,68.72,109.28,75.81,109.28,83.21z M64.35,56.23c-0.08-2.42-2.18-4.41-4.6-4.33
	c-2.43,0.07-4.41,2.18-4.33,4.6c0.08,2.43,2.18,4.42,4.6,4.34C62.43,60.76,64.43,58.64,64.35,56.23z"/>
<path class="st0" d="M199.1,60.87c0,7.61,0,14.8,0,22.22c-2.93,0-5.77,0-9,0c0-2.77,0-5.63,0-8.49c0-4.39-0.03-8.79,0.01-13.18
	c0.05-5.78,3.71-9.5,9.46-9.53c8.32-0.04,16.64-0.05,24.96,0.02c1.58,0.01,2.43-0.42,3.21-1.91c2.99-5.66,9.11-8.23,15.18-6.62
	c5.95,1.57,10.03,6.83,10.05,12.95c0.01,6.24-4.1,11.49-10.25,13.07c-5.9,1.51-11.9-1.15-15.03-6.57c-0.45-0.78-1.3-1.87-1.97-1.88
	C216.94,60.82,208.17,60.87,199.1,60.87z M239.42,60.84c2.42,0.04,4.5-1.96,4.55-4.39c0.04-2.42-1.96-4.5-4.39-4.55
	c-2.42-0.05-4.5,1.96-4.55,4.39C234.98,58.71,236.99,60.79,239.42,60.84z"/>
<path class="st0" d="M100.37,226.99c0-7.67,0-14.93,0-22.31c2.97,0,5.74,0,8.91,0c0,2.76,0,5.53,0,8.29c0,4.39,0.02,8.79,0,13.18
	c-0.03,6.13-3.66,9.8-9.75,9.82c-8.23,0.03-16.45,0.05-24.68-0.03c-1.59-0.01-2.43,0.43-3.22,1.91c-3.03,5.67-9.11,8.22-15.19,6.61
	c-5.94-1.57-10.02-6.84-10.03-12.96c-0.01-6.12,4.06-11.42,9.98-13c6.07-1.62,12.13,1,15.3,6.5c0.45,0.78,1.3,1.88,1.97,1.89
	C82.44,227.04,91.2,226.99,100.37,226.99z M59.74,227.02c-2.44,0.08-4.4,2.17-4.32,4.6c0.08,2.43,2.18,4.4,4.6,4.33
	c2.41-0.07,4.41-2.2,4.33-4.61C64.27,228.92,62.17,226.95,59.74,227.02z"/>
<path class="st0" d="M190.1,204.65c3.09,0,5.86,0,8.93,0c0,7.4,0,14.73,0,22.34c2.13,0,3.97,0,5.82,0c5.98,0,11.96-0.1,17.94,0.05
	c2.61,0.07,4.23-0.41,5.7-3.03c2.91-5.16,9.54-7.17,15.19-5.33c5.65,1.84,9.46,7.3,9.27,13.28c-0.19,5.84-4.25,10.94-9.94,12.47
	c-5.83,1.57-12.05-0.76-14.93-6.04c-1.08-1.98-2.23-2.49-4.31-2.46c-7.94,0.11-15.89,0.06-23.83,0.03
	c-6.12-0.02-9.81-3.68-9.83-9.73C190.08,219.15,190.1,212.05,190.1,204.65z M239.63,235.95c2.41-0.07,4.42-2.2,4.33-4.6
	c-0.08-2.43-2.18-4.4-4.61-4.33c-2.44,0.08-4.4,2.16-4.33,4.6C235.1,234.05,237.2,236.03,239.63,235.95z"/>
<path class="st0" d="M154.18,83.18c-3.17,0-5.94,0-8.98,0c0-1.13,0-2.13,0-3.14c0-14.77-0.03-29.54,0.04-44.32
	c0.01-1.79-0.44-2.75-2.13-3.64c-5.43-2.87-7.96-9.12-6.41-15.04c1.56-5.95,6.83-10.05,12.94-10.06c6.15-0.01,11.41,4.01,13.02,9.96
	c1.59,5.89-0.89,12.24-6.29,15.09c-1.82,0.96-2.23,2.02-2.22,3.87c0.06,14.68,0.04,29.36,0.03,44.03
	C154.18,80.95,154.18,81.96,154.18,83.18z M149.59,15.98c-2.43,0.06-4.42,2.14-4.37,4.56c0.05,2.42,2.15,4.43,4.57,4.37
	c2.43-0.06,4.43-2.14,4.37-4.56C154.1,17.92,152.01,15.92,149.59,15.98z"/>
<path class="st0" d="M294,141.91c-1.2,1.37-2.09,2.94-3.43,3.78c-1.91,1.2-3.85,0.38-5.23-1.28c-4.88-5.88-11.41-7.55-18.61-7.09
	c-5.66,0.36-10.72,2.28-14.51,6.86c-1.97,2.39-4.63,2.63-6.65,0.89c-2.01-1.73-2.19-4.36-0.15-6.72
	c7.24-8.36,16.69-10.93,27.29-9.85c7.28,0.74,13.72,3.56,18.64,9.19C292.31,138.75,292.91,140.13,294,141.91z"/>
<path class="st0" d="M287.2,157.68c-1.13,1.3-2.01,2.9-3.36,3.72c-2.05,1.24-3.93,0.25-5.42-1.48c-3.57-4.15-8.06-5.85-13.3-4.1
	c-2.19,0.73-4.22,2.33-5.96,3.93c-2.49,2.28-4.8,2.82-6.88,1.01c-2.07-1.8-2.04-4.3,0.09-6.95c8.25-10.29,24.73-10.2,32.78,0.22
	C285.87,154.95,286.32,156.08,287.2,157.68z"/>
<path class="st0" d="M32.73,146.19c4.87,0.11,10.35,2.67,14.51,7.89c1.95,2.44,1.84,5-0.2,6.72c-2.05,1.73-4.57,1.37-6.63-0.94
	c-5.72-6.41-13.69-6.42-19.39-0.03c-2.08,2.33-4.56,2.7-6.63,1c-2.06-1.7-2.16-4.22-0.27-6.71
	C17.97,149.04,24.14,146.13,32.73,146.19z"/>
<path class="st0" d="M35.17,168.61c0,2.42-2.04,4.47-4.47,4.48c-2.43,0.01-4.47-2.03-4.47-4.47c-0.01-2.44,2.01-4.47,4.46-4.47
	C33.12,164.15,35.16,166.19,35.17,168.61z"/>
<path class="st0" d="M268.69,173.09c-2.43,0.01-4.47-2.02-4.48-4.46c-0.01-2.44,2.01-4.47,4.46-4.48c2.44-0.01,4.48,2.02,4.48,4.45
	C273.15,171.05,271.12,173.08,268.69,173.09z"/>
<path class="st0" d="M133.32,133.6c-3.62-4.22-3.67-4.58-1.09-7.15c2.55-2.54,2.92-2.49,7.17,1.14c1.05-0.49,2.09-1.19,3.24-1.47
	c2.19-0.53,3.33-1.52,3.05-4.01c-0.22-1.93,1.05-2.93,2.97-2.85c1.94,0.08,4.91-0.74,4.88,2.19c-0.04,3.3,1.5,4.37,4.13,5.07
	c0.79,0.21,1.51,0.71,2.24,1.06c4.51-3.57,4.88-3.61,7.56-0.81c2.23,2.33,2.12,2.85-1.4,6.77c0.62,1.47,1.45,2.95,1.84,4.54
	c0.39,1.55,1.22,1.79,2.6,1.82c3.4,0.07,3.86,0.61,3.87,3.97c0.01,3.44-0.47,4.07-3.75,4.08c-1.56,0-2.36,0.44-2.78,1.99
	c-0.38,1.42-1.13,2.75-1.72,4.15c3.42,5.03,3.39,5.22,0.43,7.93c-3.1,2.84-4.56-0.29-6.53-1.78c-1.1,0.52-2.15,1.21-3.29,1.5
	c-2.18,0.54-3.35,1.51-3.05,4.01c0.23,1.94-1.07,2.92-2.98,2.85c-1.94-0.07-4.92,0.73-4.87-2.2c0.05-3.32-1.54-4.34-4.14-5.07
	c-0.79-0.22-1.51-0.71-2.24-1.06c-4.47,3.59-4.87,3.63-7.57,0.79c-2.2-2.31-2.1-2.81,1.39-6.74c-0.68-1.67-1.2-3.48-2.14-5.04
	c-0.42-0.7-1.67-1.17-2.59-1.25c-3.03-0.28-3.56-0.78-3.57-4.07c0-3.38,0.5-4.11,3.48-4.05c1.81,0.04,2.71-0.51,3.15-2.27
	C131.96,136.31,132.69,135.07,133.32,133.6z M149.45,157.39c7.35,0.11,13.53-5.78,13.7-13.09c0.18-7.49-5.78-13.72-13.22-13.84
	c-7.35-0.12-13.53,5.78-13.7,13.08C136.06,151.03,142.02,157.28,149.45,157.39z"/>
<path class="st0" d="M149.8,139.46c2.44,0.06,4.42,2.14,4.36,4.58c-0.06,2.43-2.16,4.43-4.58,4.36c-2.43-0.06-4.41-2.15-4.35-4.58
	C145.29,141.38,147.37,139.4,149.8,139.46z"/>
</svg>
