<?xml version="1.0" encoding="utf-8"?>
<!-- Generator: Adobe Illustrator 23.0.1, SVG Export Plug-In . SVG Version: 6.00 Build 0)  -->
<svg version="1.1" id="Layer_1" xmlns="http://www.w3.org/2000/svg" xmlns:xlink="http://www.w3.org/1999/xlink" x="0px" y="0px"
	 viewBox="0 0 300 300" style="enable-background:new 0 0 300 300;" xml:space="preserve">
<style type="text/css">
	.st0{fill:#001973;}
</style>
<path class="st0" d="M155.2,31.9c-5,4.5-5.1,5.6-0.9,11.1c3.1,4.2,6.2,8.4,9.4,12.5c1.5,2,2.2,4.1,0.7,6.3c-1.4,2.2-3.5,2.6-6,2.2
	c-6-1-11.9-1.8-17.9-2.6c-3.1-0.4-5.5,1-5.9,4.1c-1.6,9.9-3,19.8-4.3,29.7c-0.5,3.6,1.4,5.4,5.2,6c5.9,0.8,11.7,1.7,17.6,2.5
	c2.4,0.3,4.1,1.4,4.8,3.8c0.6,2.4-0.4,4.2-2.3,5.7c-4.8,3.6-9.5,7.1-14.2,10.7c-3.5,2.7-3.9,5-1.3,8.5c5.6,7.5,11.2,15,16.9,22.5
	c2.4,3.2,5,3.5,8.3,1.1c4.7-3.5,9.4-7,14-10.5c2-1.5,4-2.4,6.3-1c2.4,1.4,2.8,3.6,2.4,6.2c-0.9,5.6-1.6,11.1-2.4,16.7
	c-0.7,4.8,0.8,6.8,5.9,7.5c9.9,1.4,19.9,2.8,30.9,4.3c-5.2,4.8-9.9,9.1-14.7,13.3c-2,1.8-4.4,3.2-6.6,4.7
	c-8.6,5.9-13,14.1-13.2,24.5c-0.1,6.4,0,12.7,0,19.1c-0.1,9-6.4,15.3-15.4,15.4c-13.1,0.1-26.3,0.1-39.4,0
	c-8.8,0-15.1-6.5-15.2-15.3c-0.1-5.7-0.2-11.5,0-17.2c0.3-12-4.6-20.9-14.6-27.5c-20.9-13.9-33.8-33.4-38.8-58.1
	c-10-49.1,24.5-98.4,73.9-105.7c5.6-0.8,11.3-1,16.9-1.5C155.1,31.3,155.2,31.6,155.2,31.9z M115.4,62.1c-0.9,0.5-1.4,0.8-1.9,1.1
	C86.2,81.3,75.2,117.8,88,148c7.9,18.5,21.3,31.2,39.8,38.8c10,4.1,16.3,11.6,19,22.1c0.6,2.4,0.8,4.9,1.2,7.2c3.3,0,6.5,0,10,0
	c-0.4-3.1-0.6-5.9-1.2-8.6c-3.5-15.2-13.1-24.9-27.3-31C90,159.7,80.1,109.6,110.2,79c3.1-3.2,6.7-5.8,10.3-8.9
	C118.9,67.6,117.3,65,115.4,62.1z M147.9,226.4c0,5.1,0,10,0,14.7c3.3,0,6.4,0,9.6,0c0-5,0-9.8,0-14.7
	C154.2,226.4,151.2,226.4,147.9,226.4z"/>
<path class="st0" d="M140.7,91.8c0.9-6.6,1.9-12.9,2.8-19.7c4.8,0.6,9.4,1.3,13.9,1.9c6.5,0.9,11.7-1.3,15.3-6.8
	c3.5-5.3,3.2-11.5-0.7-17c-2.7-3.8-5.5-7.6-8.3-11.3c-0.1-0.1,0-0.2-0.1-0.6c5-3.8,10.1-7.6,15.6-11.7c2.9,3.9,5.7,7.7,8.6,11.4
	c6.3,8,17.3,8.6,23.4,1c1.9-2.4,2.9-5.7,3.7-8.7c1-4.3,1.4-8.8,2.1-13.3c6.4,0.9,12.5,1.8,18.5,2.6c0.3,0,0.6,0.3,1.1,0.5
	c-0.6,4.4-1.2,9-1.9,13.5c-0.9,6.5,1.2,11.7,6.7,15.3c5.2,3.5,11.6,3.2,17-0.6c2-1.4,3.9-2.8,5.8-4.3c1.9-1.4,3.8-2.8,6-4.5
	c4,5.3,7.9,10.5,12,16c-3.6,2.7-7,5.2-10.4,7.8c-6.2,4.6-8.5,10.2-6.8,16.8c1.5,6.2,6.4,10.2,13.8,11.3c4.2,0.6,8.4,1.3,13,2
	c-0.9,6.5-1.8,12.9-2.8,19.7c-4.9-0.7-9.6-1.3-14.3-1.9c-6.5-0.8-11.8,1.5-15.1,7.1c-3.4,5.6-2.9,11.4,0.9,16.7
	c2.8,3.9,5.7,7.7,8.7,11.7c-5.3,4-10.5,7.9-15.9,12c-3-4-5.9-7.9-8.9-11.7c-4.3-5.4-10.9-7.4-17-5.1c-5.7,2.1-8.9,6.3-9.8,12.3
	c-0.7,4.6-1.4,9.2-2.1,14.1c-6.7-0.9-13.1-1.9-19.8-2.8c0.7-5,1.4-9.8,1.9-14.7c0.7-6.4-1.7-11.5-7.2-14.8c-5.4-3.2-11-2.9-16.2,0.6
	c-4.1,2.8-8,5.9-12.1,9c-4-5.3-7.9-10.5-12-15.9c3.9-2.9,7.8-5.7,11.5-8.7c6.9-5.5,8.2-14.6,3-21.3c-2.8-3.6-6.6-5.3-11-5.8
	C149.6,93.1,145.3,92.5,140.7,91.8z M216.4,122.5c16.7-0.1,30.2-13.6,30.1-30.3c-0.1-16.3-13.6-29.7-30-29.7
	c-16.6,0-30.1,13.6-30,30.3C186.5,109.2,200,122.6,216.4,122.5z"/>
<path class="st0" d="M101,224.9c-3.6-2.5-6.8-4.7-9.9-6.8c-6.9-4.6-14.4-1.6-16.3,6.5c-0.7,3.1-1.4,6.3-2,9.5
	c-0.3,1.7-0.9,2.3-2.6,2.2c-3.2-0.1-6.4,0-9.7,0c-0.9-4.3-1.7-8.4-2.7-12.4c-1.8-7.2-9.1-10.2-15.4-6.2c-3.5,2.2-6.8,4.6-10.8,7.4
	c-2.5-2.8-5.1-5.4-7.4-8.1c-0.5-0.6-0.5-2.1-0.1-2.8c1.7-2.8,3.8-5.5,5.6-8.3c4.4-6.7,1.5-14.1-6.2-16c-3.8-0.9-7.7-1.7-12-2.6
	c0-3.5-0.1-7.1,0.1-10.8c0-0.5,1.2-1.3,1.9-1.4c3.4-0.9,6.9-1.5,10.3-2.3c7.4-1.9,10.3-9.2,6.1-15.6c-2.1-3.3-4.5-6.5-6.5-9.4
	c3.1-3.1,6-6.1,9.3-9.4c2.4,1.6,5.3,3.6,8.2,5.6c7.9,5.4,14.8,2.9,17.3-6.4c0.1-0.5,0.3-0.9,0.5-1.7c1.3,5.4,2.5,10.4,3.8,15.7
	c-9.2,1.5-16.5,6.1-21.5,14c-3.5,5.5-4.9,11.6-4.5,18.2c0.7,12.3,9.7,23.1,22.1,26.5c13.1,3.7,25.2-1.5,34.5-15
	c5.9,4.9,13.3,8,17.1,15.4c1.2,2.3,1.4,3.9-0.8,5.8C106.3,218.9,103.8,221.9,101,224.9z"/>
<path class="st0" d="M172.7,281.5c0,1.9,0.1,3.5,0,5.2c-0.3,5.3-4.3,9.4-9.7,9.6c-6.9,0.1-13.7,0.1-20.6,0c-5.3-0.1-9.4-4.3-9.7-9.6
	c-0.1-1.6,0-3.3,0-5.2C146,281.5,159.1,281.5,172.7,281.5z"/>
<path class="st0" d="M55.6,57.2c-2.1,2.9-3.9,5.4-5.8,8.1c-11.7-8.4-23.3-16.6-35-25c2-2.8,3.8-5.3,5.8-8.1
	C32.2,40.5,43.8,48.7,55.6,57.2z"/>
<path class="st0" d="M46.4,81.4c0.8,3.3,1.6,6.3,2.5,9.7c-13.3,3.3-26.5,6.6-40,10c-0.9-3.3-1.6-6.3-2.5-9.7
	C19.7,88.1,32.9,84.8,46.4,81.4z"/>
<path class="st0" d="M57.6,7.5c3.3-0.8,6.3-1.6,9.7-2.5c3.4,13.3,6.8,26.5,10.2,40c-3.3,0.8-6.3,1.6-9.7,2.5
	C64.5,34.2,61.1,21.1,57.6,7.5z"/>
<path class="st0" d="M132.8,271c0-3.2,0-6.3,0-9.6c13.2,0,26.4,0,39.7,0c0,3.1,0,6.2,0,9.6C159.4,271,146.3,271,132.8,271z"/>
<path class="st0" d="M239.5,225.1c2.2-2.7,4.2-5.1,6.4-7.7c10,8.3,19.9,16.5,30,25c-2.1,2.5-4.2,5-6.4,7.7
	C259.5,241.7,249.6,233.5,239.5,225.1z"/>
<path class="st0" d="M282.5,201.1c-11.6,0-23,0-34.6,0c0-3.2,0-6.3,0-9.7c11.5,0,22.9,0,34.6,0C282.5,194.6,282.5,197.7,282.5,201.1
	z"/>
<path class="st0" d="M227.5,266.1c-3.3,0-6.4,0-9.6,0c0-11.6,0-23,0-34.6c3.1,0,6.3,0,9.6,0C227.5,242.9,227.5,254.4,227.5,266.1z"
	/>
<path class="st0" d="M225,173.6c0.9-6.4,1.8-12.9,2.9-19.2c0.4-2.4,2.5-3.5,4.9-3.4c3,0.1,4.2,1.9,3,4.7
	C233.1,162,229.9,168.2,225,173.6z"/>
</svg>
