<?xml version="1.0" encoding="utf-8"?>
<!-- Generator: Adobe Illustrator 23.0.1, SVG Export Plug-In . SVG Version: 6.00 Build 0)  -->
<svg version="1.1" id="Layer_1" xmlns="http://www.w3.org/2000/svg" xmlns:xlink="http://www.w3.org/1999/xlink" x="0px" y="0px"
	 viewBox="0 0 300 300" style="enable-background:new 0 0 300 300;" xml:space="preserve">
<style type="text/css">
	.st0{fill:#FFFFFF;}
</style>
<path class="st0" d="M155.2,31.93c-4.98,4.49-5.07,5.64-0.94,11.13c3.13,4.16,6.22,8.35,9.38,12.49c1.52,2,2.19,4.09,0.72,6.33
	c-1.42,2.15-3.5,2.62-6.02,2.21c-5.96-0.96-11.94-1.78-17.92-2.6c-3.13-0.43-5.46,1-5.95,4.1c-1.55,9.87-2.98,19.76-4.25,29.66
	c-0.46,3.57,1.44,5.43,5.24,5.96c5.87,0.82,11.74,1.69,17.62,2.5c2.38,0.33,4.14,1.37,4.78,3.81c0.65,2.45-0.43,4.23-2.33,5.65
	c-4.75,3.56-9.51,7.1-14.23,10.7c-3.48,2.65-3.87,5.02-1.29,8.49c5.58,7.53,11.2,15.03,16.86,22.49c2.45,3.23,4.99,3.54,8.32,1.08
	c4.69-3.46,9.36-6.96,13.99-10.49c1.96-1.5,3.96-2.39,6.31-1c2.41,1.42,2.79,3.61,2.37,6.22c-0.88,5.55-1.56,11.13-2.4,16.69
	c-0.72,4.78,0.83,6.84,5.87,7.54c9.95,1.39,19.9,2.77,30.91,4.31c-5.23,4.77-9.89,9.15-14.7,13.34c-2.03,1.77-4.38,3.18-6.6,4.72
	c-8.57,5.93-13.02,14.12-13.21,24.53c-0.12,6.35,0.02,12.71-0.04,19.06c-0.08,8.97-6.43,15.35-15.39,15.39
	c-13.13,0.06-26.25,0.07-39.38,0c-8.76-0.05-15.11-6.47-15.21-15.26c-0.07-5.73-0.15-11.46,0.01-17.19
	c0.32-11.97-4.63-20.89-14.61-27.53c-20.95-13.94-33.85-33.45-38.84-58.1C54.3,89.05,88.74,39.79,138.19,32.45
	c5.59-0.83,11.27-1.03,16.92-1.52C155.14,31.26,155.17,31.6,155.2,31.93z M115.44,62.13c-0.87,0.5-1.42,0.78-1.93,1.12
	c-27.32,18.02-38.32,54.6-25.51,84.71c7.86,18.47,21.28,31.2,39.78,38.79c10.02,4.11,16.28,11.63,18.98,22.07
	c0.61,2.37,0.8,4.85,1.17,7.18c3.33,0,6.49,0,9.98,0c-0.43-3.06-0.61-5.88-1.24-8.59c-3.52-15.19-13.05-24.92-27.26-30.96
	c-39.43-16.77-49.27-66.89-19.25-97.46c3.11-3.17,6.74-5.83,10.3-8.87C118.9,67.62,117.26,65.01,115.44,62.13z M147.94,226.37
	c0,5.15,0,9.96,0,14.72c3.33,0,6.4,0,9.57,0c0-4.98,0-9.79,0-14.72C154.24,226.37,151.16,226.37,147.94,226.37z"/>
<path class="st0" d="M140.71,91.79c0.95-6.6,1.85-12.93,2.82-19.68c4.75,0.64,9.35,1.25,13.94,1.89c6.52,0.92,11.7-1.32,15.31-6.79
	c3.47-5.26,3.17-11.52-0.68-16.97c-2.7-3.82-5.52-7.56-8.28-11.33c-0.05-0.07-0.04-0.2-0.11-0.61c5.02-3.76,10.15-7.61,15.65-11.74
	c2.9,3.86,5.67,7.69,8.59,11.41c6.29,8,17.34,8.59,23.45,0.95c1.9-2.38,2.95-5.67,3.68-8.72c1.03-4.31,1.39-8.77,2.05-13.29
	c6.41,0.9,12.48,1.75,18.54,2.63c0.29,0.04,0.55,0.27,1.1,0.54c-0.61,4.44-1.2,8.96-1.85,13.47c-0.94,6.51,1.24,11.7,6.7,15.35
	c5.2,3.48,11.56,3.19,16.98-0.58c1.96-1.37,3.85-2.84,5.77-4.27c1.91-1.42,3.83-2.83,6.03-4.47c4.01,5.35,7.91,10.54,11.98,15.96
	c-3.59,2.69-6.98,5.24-10.38,7.78c-6.19,4.62-8.46,10.19-6.82,16.76c1.55,6.21,6.42,10.17,13.8,11.25
	c4.21,0.62,8.41,1.27,13.01,1.97c-0.92,6.52-1.82,12.94-2.78,19.69c-4.91-0.66-9.61-1.3-14.31-1.91
	c-6.55-0.85-11.76,1.52-15.13,7.13c-3.38,5.63-2.9,11.36,0.91,16.7c2.77,3.88,5.68,7.66,8.68,11.69
	c-5.33,4.01-10.47,7.87-15.91,11.97c-3.01-3.96-5.88-7.88-8.89-11.68c-4.33-5.44-10.85-7.36-17.02-5.06
	c-5.69,2.12-8.87,6.34-9.82,12.25c-0.74,4.6-1.35,9.22-2.07,14.13c-6.66-0.95-13.1-1.87-19.75-2.82c0.67-5.03,1.39-9.84,1.94-14.67
	c0.73-6.42-1.67-11.52-7.19-14.8c-5.41-3.21-10.98-2.95-16.18,0.63c-4.09,2.82-8.01,5.9-12.15,8.97
	c-3.99-5.33-7.86-10.48-11.96-15.94c3.91-2.94,7.75-5.73,11.47-8.67c6.94-5.48,8.2-14.62,3.02-21.34c-2.77-3.6-6.57-5.27-10.97-5.85
	C149.59,93.14,145.3,92.46,140.71,91.79z M216.35,122.51c16.72-0.07,30.18-13.62,30.05-30.25c-0.13-16.32-13.65-29.72-29.98-29.73
	c-16.63-0.01-30.08,13.58-30,30.3C186.51,109.2,199.99,122.57,216.35,122.51z"/>
<path class="st0" d="M100.96,224.85c-3.61-2.47-6.76-4.67-9.95-6.8c-6.92-4.63-14.43-1.61-16.28,6.54
	c-0.71,3.14-1.45,6.29-1.96,9.47c-0.27,1.68-0.91,2.29-2.61,2.23c-3.2-0.12-6.41-0.03-9.71-0.03c-0.94-4.32-1.73-8.39-2.72-12.41
	c-1.78-7.24-9.07-10.2-15.36-6.23c-3.5,2.21-6.85,4.65-10.82,7.36c-2.55-2.75-5.09-5.35-7.4-8.13c-0.49-0.59-0.54-2.12-0.12-2.8
	c1.73-2.84,3.78-5.48,5.6-8.26c4.4-6.69,1.53-14.07-6.24-15.98c-3.83-0.94-7.71-1.69-12.01-2.62c0-3.54-0.08-7.15,0.09-10.75
	c0.02-0.52,1.16-1.26,1.89-1.44c3.43-0.86,6.92-1.46,10.34-2.33c7.39-1.89,10.26-9.23,6.11-15.63c-2.15-3.32-4.46-6.52-6.46-9.43
	c3.07-3.1,6.03-6.08,9.27-9.35c2.36,1.61,5.26,3.6,8.16,5.58c7.92,5.4,14.79,2.88,17.3-6.35c0.13-0.48,0.28-0.95,0.51-1.72
	c1.28,5.36,2.49,10.38,3.76,15.7C53.2,153,45.9,157.55,40.9,165.43c-3.5,5.53-4.86,11.65-4.47,18.18
	c0.72,12.27,9.67,23.06,22.07,26.54c13.11,3.68,25.22-1.52,34.5-15.01c5.91,4.92,13.32,8.02,17.06,15.41
	c1.16,2.29,1.41,3.92-0.82,5.84C106.34,218.9,103.84,221.87,100.96,224.85z"/>
<path class="st0" d="M172.68,281.47c0,1.87,0.08,3.53-0.01,5.18c-0.29,5.33-4.31,9.44-9.67,9.56c-6.87,0.15-13.74,0.15-20.61,0.01
	c-5.31-0.11-9.39-4.27-9.67-9.56c-0.09-1.65-0.01-3.31-0.01-5.18C146,281.47,159.15,281.47,172.68,281.47z"/>
<path class="st0" d="M55.58,57.15c-2.08,2.9-3.88,5.41-5.83,8.12C38.03,56.9,26.5,48.65,14.79,40.29c1.97-2.78,3.77-5.3,5.78-8.13
	C32.24,40.49,43.77,48.72,55.58,57.15z"/>
<path class="st0" d="M46.43,81.4c0.84,3.33,1.6,6.32,2.46,9.68c-13.31,3.33-26.52,6.63-39.96,10c-0.85-3.35-1.61-6.35-2.46-9.68
	C19.72,88.09,32.86,84.8,46.43,81.4z"/>
<path class="st0" d="M57.61,7.51c3.27-0.85,6.26-1.62,9.68-2.51c3.41,13.34,6.79,26.52,10.23,39.97c-3.31,0.84-6.3,1.61-9.67,2.47
	C64.46,34.21,61.09,21.09,57.61,7.51z"/>
<path class="st0" d="M132.81,271.01c0-3.19,0-6.27,0-9.56c13.24,0,26.38,0,39.71,0c0,3.13,0,6.22,0,9.56
	C159.45,271.01,146.3,271.01,132.81,271.01z"/>
<path class="st0" d="M239.51,225.09c2.23-2.67,4.22-5.05,6.41-7.67c10,8.32,19.86,16.54,30,24.98c-2.13,2.54-4.17,4.98-6.41,7.67
	C259.51,241.74,249.64,233.53,239.51,225.09z"/>
<path class="st0" d="M282.54,201.11c-11.56,0-22.96,0-34.6,0c0-3.16,0-6.31,0-9.67c11.46,0,22.94,0,34.6,0
	C282.54,194.58,282.54,197.66,282.54,201.11z"/>
<path class="st0" d="M227.49,266.11c-3.31,0-6.39,0-9.63,0c0-11.55,0-22.96,0-34.62c3.09,0,6.25,0,9.63,0
	C227.49,242.9,227.49,254.38,227.49,266.11z"/>
<path class="st0" d="M225,173.55c0.95-6.41,1.76-12.85,2.93-19.22c0.43-2.36,2.5-3.52,4.94-3.45c3.01,0.08,4.17,1.93,3,4.7
	C233.15,162.04,229.88,168.18,225,173.55z"/>
</svg>
