<?xml version="1.0" encoding="utf-8"?>
<!-- Generator: Adobe Illustrator 23.0.1, SVG Export Plug-In . SVG Version: 6.00 Build 0)  -->
<svg version="1.1" id="Layer_1" xmlns="http://www.w3.org/2000/svg" xmlns:xlink="http://www.w3.org/1999/xlink" x="0px" y="0px"
	 viewBox="0 0 300 300" style="enable-background:new 0 0 300 300;" xml:space="preserve">
<style type="text/css">
	.st0{fill:#FFFFFF;}
</style>
<path class="st0" d="M82.88,83.66c19.41,1.52,38.76,3.04,58.4,4.58c0,18.33,0,37.23,0,56.3c-22.27,0-44.53,0-66.76,0
	C73.13,133.4,78.25,96.49,82.88,83.66z"/>
<path class="st0" d="M74.2,154.3c22.49,0,44.67,0,67.09,0c0,18.86,0,37.75,0,56.29c-19.51,1.52-38.94,3.03-58.59,4.56
	C77.32,195.45,74.49,175.15,74.2,154.3z"/>
<path class="st0" d="M64.24,144.61c-18.9,0-37.86,0-57.21,0c1.08-27.17,9.24-51.8,24.24-73.76c14.2,3.8,28.09,7.51,41.85,11.19
	c-1.92,9.97-4.32,20.28-5.81,30.72C65.82,123.24,65.24,133.83,64.24,144.61z"/>
<path class="st0" d="M7,154.23c19.42,0,38.37,0,57.7,0c0.43,21.29,3.26,42.22,8.85,62.45c-13.99,3.74-27.88,7.45-42.29,11.3
	C16.28,206.19,8.19,181.54,7,154.23z"/>
<path class="st0" d="M85.49,224.34c18.92-1.44,37.2-2.84,55.79-4.25c0,23.17,0,45.52,0,68.64c-3.7-1.16-7.3-1.98-10.66-3.38
	c-9.59-4.01-16.99-10.85-23.38-18.87C97.45,254.18,90.91,240.19,85.49,224.34z"/>
<path class="st0" d="M141.37,78.04c-18.71,0.02-37.06-1.56-56.2-4.28c3.74-8.32,6.97-16.32,10.86-23.98
	c5.73-11.31,13.09-21.47,23.14-29.44c5.69-4.51,11.99-7.82,19.15-9.35c0.94-0.2,1.91-0.29,3.06-0.45
	C141.37,33.06,141.37,55.34,141.37,78.04z"/>
<path class="st0" d="M110.93,284.19c-29.6-8.09-53.88-23.92-73.74-48.13c9.81-2.61,19.05-5.1,28.31-7.51
	c2.47-0.64,5.04-0.89,7.49-1.58c2.57-0.73,3.76-0.05,4.66,2.59c4.86,14.3,11.35,27.83,20.55,39.88
	C102.06,274.48,106.5,279.09,110.93,284.19z"/>
<path class="st0" d="M110.84,14.99C94.53,30.31,84.6,49.4,77.29,70.09c-0.44,1.25-0.68,2.39-2.52,2.05
	c-12.54-2.29-24.86-5.42-37.22-9.76C57.03,38.56,81.32,22.77,110.84,14.99z"/>
<path class="st0" d="M155.02,149.43c11.37,7.28,22.2,14.22,33.07,21.18c-1.72,2.67-3.34,5.19-5.1,7.92
	c-6.72-4.29-13.49-8.61-20.26-12.94c-3.31-2.12-6.7-4.13-9.89-6.42c-0.92-0.66-1.74-2.08-1.79-3.2c-0.2-4.42-0.15-8.85-0.03-13.28
	c0.03-0.91,0.52-2.19,1.22-2.64c10.2-6.64,20.48-13.18,30.76-19.75c1.72,2.68,3.34,5.2,5.09,7.93
	C177.25,135.19,166.37,142.16,155.02,149.43z"/>
<path class="st0" d="M151.19,10.28c26.47,1.09,50.49,8.92,72.48,23.51c-2.09,2.46-4.07,4.79-6.18,7.27
	c-9.93-6.42-20.45-11.59-31.72-15.21c-11.19-3.6-22.67-5.55-34.58-6.17C151.19,16.49,151.19,13.43,151.19,10.28z"/>
<path class="st0" d="M151.09,288.6c0-3.27,0-6.18,0-9.41c24.1-1.12,46.26-8.19,66.38-21.38c2.11,2.47,4.07,4.76,6.22,7.28
	C201.8,279.67,177.72,287.47,151.09,288.6z"/>
<path class="st0" d="M191.13,111.54c0.04-7.75,6.33-14.04,14.08-14.06c7.84-0.02,14.28,6.43,14.22,14.26
	c-0.05,7.7-6.42,14.03-14.13,14.06C197.42,125.83,191.09,119.46,191.13,111.54z"/>
<path class="st0" d="M266.69,149.23c0.07-7.73,6.42-13.99,14.18-13.96c7.83,0.03,14.25,6.55,14.13,14.36
	c-0.12,7.72-6.52,14-14.23,13.96C272.9,163.56,266.62,157.15,266.69,149.23z"/>
<path class="st0" d="M191.13,187.21c-0.01-7.77,6.24-14.1,13.98-14.16c7.86-0.06,14.32,6.33,14.32,14.16
	c0.01,7.83-6.46,14.23-14.32,14.16C197.37,201.31,191.13,194.99,191.13,187.21z"/>
<path class="st0" d="M224.19,52.61c0-7.9,6.39-14.23,14.28-14.16c7.71,0.07,14.04,6.46,14.03,14.16
	c-0.01,7.85-6.47,14.23-14.32,14.17C230.44,66.71,224.19,60.37,224.19,52.61z"/>
<path class="st0" d="M224.18,246.08c0.08-7.87,6.55-14.13,14.45-13.99c7.68,0.14,13.95,6.62,13.86,14.33
	c-0.1,7.84-6.61,14.13-14.49,13.99C230.29,260.26,224.11,253.85,224.18,246.08z"/>
<path class="st0" d="M250.99,72.61c1.18-0.98,2.43-1.92,3.56-2.98c1.07-1.01,2.01-2.14,3.01-3.22c9.83,9.22,25.53,45.52,25.6,59.19
	c-2.98,0.32-5.97,0.65-8.96,0.97C266.44,96.97,264.72,94.55,250.99,72.61z"/>
<path class="st0" d="M250.86,226.1c11.9-16.37,19.51-34.27,23.12-53.82c3.11,0.32,6,0.61,9.43,0.96
	c-3.78,21.81-12.34,41.53-25.62,59.4c-1.24-1.33-2.25-2.51-3.38-3.58C253.36,228.07,252.18,227.2,250.86,226.1z"/>
<path class="st0" d="M150.97,250.47c0-4.64-0.05-8.37,0.04-12.1c0.02-0.8,0.31-1.8,0.84-2.36c11.2-11.74,22.46-23.42,33.75-35.17
	c2.27,2.15,4.45,4.21,6.86,6.49C178.84,221.49,165.18,235.69,150.97,250.47z"/>
<path class="st0" d="M150.97,48.38c14.23,14.79,27.84,28.95,41.48,43.12c-2.28,2.17-4.39,4.18-6.69,6.38
	c-0.42-0.35-1.04-0.77-1.54-1.3c-10.5-10.91-21.03-21.8-31.43-32.81c-1.01-1.06-1.62-2.84-1.73-4.34
	C150.79,56.03,150.97,52.61,150.97,48.38z"/>
<path class="st0" d="M262.06,134.74c-1.52,3.01-2.83,5.6-4.27,8.44c-11.23-5.61-22.42-11.21-33.73-16.86
	c1.39-2.79,2.72-5.45,4.22-8.45C239.5,123.48,250.77,129.1,262.06,134.74z"/>
<path class="st0" d="M228.28,180.99c-1.44-2.87-2.75-5.47-4.23-8.43c11.15-5.58,22.39-11.21,33.74-16.89
	c1.45,2.87,2.8,5.53,4.28,8.44C250.83,169.72,239.55,175.36,228.28,180.99z"/>
<path class="st0" d="M222.81,70.68c2.91,1.63,5.44,3.05,8.22,4.61c-3.42,6.11-6.84,12.21-10.24,18.29
	c-2.86-1.61-5.46-3.09-8.21-4.64C215.97,82.88,219.36,76.84,222.81,70.68z"/>
<path class="st0" d="M212.56,209.91c2.81-1.59,5.35-3.02,8.21-4.63c3.36,5.99,6.79,12.1,10.26,18.28c-2.68,1.51-5.22,2.93-8.2,4.6
	C219.47,222.19,216.05,216.11,212.56,209.91z"/>
</svg>
