<?xml version="1.0" encoding="utf-8"?>
<!-- Generator: Adobe Illustrator 23.0.1, SVG Export Plug-In . SVG Version: 6.00 Build 0)  -->
<svg version="1.1" id="Layer_1" xmlns="http://www.w3.org/2000/svg" xmlns:xlink="http://www.w3.org/1999/xlink" x="0px" y="0px"
	 viewBox="0 0 24 24" style="enable-background:new 0 0 24 24;" xml:space="preserve">
<style type="text/css">
	.st0{opacity:0.5;}
	.st1{fill:#FFFFFF;}
</style>
<g id="info">
</g>
<g id="icons" class="st0">
	<path id="user2" class="st1" d="M12,0C5.4,0,0,5.4,0,12s5.4,12,12,12s12-5.4,12-12S18.6,0,12,0z M12,4c2.2,0,4,2.2,4,5s-1.8,5-4,5
		s-4-2.2-4-5S9.8,4,12,4z M18.6,19.5C16.9,21,14.5,22,12,22s-4.9-1-6.6-2.5c-0.4-0.4-0.5-1-0.1-1.4c1.1-1.3,2.6-2.2,4.2-2.7
		c0.8,0.4,1.6,0.6,2.5,0.6s1.7-0.2,2.5-0.6c1.7,0.5,3.1,1.4,4.2,2.7C19.1,18.5,19.1,19.1,18.6,19.5z"/>
</g>
</svg>
